PathFileType	4	(X/Y/Z)	67_2_39_p1_0-382.trc
DataRate	CameraRate	NumFrames	NumMarkers	Units	OrigDataRate	OrigDataStartFrame	OrigNumFrames
59.0	59.0	7	27	m	59.0	335	383
Frame#	Time	RHip			RKnee			RAnkle			RBigToe			RSmallToe			RHeel			LHip			LKnee			LAnkle			LBigToe			LSmallToe			LHeel			Neck			Head			Nose			RShoulder			RElbow			RWrist			RThumb			RIndex			RPinky			LShoulder			LElbow			LWrist			LThumb			LIndex			LPinky			
		X1	Y1	Z1	X2	Y2	Z2	X3	Y3	Z3	X4	Y4	Z4	X5	Y5	Z5	X6	Y6	Z6	X7	Y7	Z7	X8	Y8	Z8	X9	Y9	Z9	X10	Y10	Z10	X11	Y11	Z11	X12	Y12	Z12	X13	Y13	Z13	X14	Y14	Z14	X15	Y15	Z15	X16	Y16	Z16	X17	Y17	Z17	X18	Y18	Z18	X19	Y19	Z19	X20	Y20	Z20	X21	Y21	Z21	X22	Y22	Z22	X23	Y23	Z23	X24	Y24	Z24	X25	Y25	Z25	X26	Y26	Z26	X27	Y27	Z27	
335	5.677966101694915	0.3962170074048816	0.5558209659100635	-0.09167107303065399	0.3976543738043207	0.6902816087819951	0.3242556041708551	0.3931376746261164	0.8588844644221396	0.7355941081421983	0.35542076885972046	0.6599866717624873	0.7986244198238978	0.41430522525782254	0.6667752755005527	0.7857841111124054	0.3579337163023481	0.9626795836304048	0.7957356782756184	0.18850080844641343	0.5488731200662784	-0.09944722750161963	0.19687395345709033	0.688898296167994	0.3252865432990607	0.16051366889877464	0.832209620744511	0.722222430167772	0.18064601622205467	0.6381035751367182	0.7798036550246924	0.13005513832286228	0.6976156517641482	0.7802322321862982	0.16044781469216143	0.8836908681861753	0.7714840571022166	0.3115342547671373	0.34949249106302754	-0.5832376072182853	0.3193493004526162	0.26261866448741267	-0.7999909927094894	0.3044528888078491	0.21976681591789085	-0.6697968148892425	0.4391067558592501	0.3799879614332194	-0.4857972309096803	0.4792740647886714	0.44480196770725333	-0.216233934157897	0.4001914677513306	0.3977223570770042	0.023675650229849285	0.3108210102807821	0.4003196100641573	0.11125666407662146	0.33480724956461366	0.3734263551907928	0.1496036137903085	0.36387084137540876	0.4287994074265775	0.14975497346709368	0.15293112860611405	0.3841930630482254	-0.4981280774597669	0.119291593915542	0.44142678166656896	-0.22625425610005712	0.14489643281425985	0.40372085717069195	-0.012770690157233488	0.16140459050131342	0.29917783911511553	0.07034624364202445	0.12951637491377302	0.2945126395111113	0.11435468750774185	0.09571195704095749	0.37146774646482456	0.10850105205044099
336	5.694915254237288	0.3918893475616146	0.5540557685487414	-0.09185523891899984	0.39683662655540625	0.6873975253641283	0.315772640048719	0.3930991500472638	0.854606042610951	0.7213524692671751	0.35104758921219087	0.6770694761027574	0.803643591960937	0.4136316897893943	0.6649955707844034	0.7810906535847694	0.3582894065105259	0.9626308390335311	0.7954598057682875	0.18923984884052703	0.5482968513965607	-0.09921711697710661	0.1957349151131062	0.6903722803000103	0.32523980338215336	0.16027379531116318	0.8328247953776147	0.7182045180006819	0.1806386670244509	0.6382657481203127	0.7800074219563493	0.13014148747976492	0.6965036810853154	0.7842042312262653	0.15975182167968288	0.8804858392680304	0.7660987166076274	0.3070213218093559	0.3625339136685465	-0.5854306270688907	0.3192683288956257	0.26208902732627015	-0.8036172801091179	0.3047332435580525	0.21984162308301747	-0.6701000227178138	0.4388195343868232	0.3779297970759665	-0.48945575022799137	0.4743170893273317	0.44520654217749384	-0.21246531978630911	0.40800966473243194	0.41114058120528707	0.024188643860702488	0.31950647033061663	0.3842184812988058	0.10643753106162153	0.3433200174599856	0.3614663627647771	0.14859775281367651	0.36710250837668257	0.41569785631902234	0.15261126382050422	0.15287098033274155	0.3843116550236452	-0.4982656211473549	0.11947987720957923	0.44126968770525754	-0.2262350765460674	0.129724962837044	0.42941594988656595	-0.007916352081255929	0.1541143529585685	0.29590594768592593	0.07951548386498218	0.12916768717945434	0.2927861754831162	0.11495722231022382	0.08674472755074783	0.3840650150104602	0.11351457395954466
337	5.711864406779661	0.39309418396154333	0.555517764906892	-0.09154892702100192	0.39681869249124324	0.6873632163254902	0.31582631965749464	0.3933204086722876	0.8539991357249584	0.72537168598586	0.3510878490400491	0.6772466093506135	0.803746245097204	0.41460993823363707	0.6681373687704527	0.7856735726621422	0.3594531668505366	0.9615099833812861	0.7905937547207585	0.1839388949667999	0.5626386481377095	-0.09932431672196322	0.19542349828119154	0.6903826393614925	0.32543869851471724	0.1602290798298182	0.8328673488874397	0.7183699435328897	0.18305283934904715	0.6544376943046196	0.7845599105785913	0.12992361342630285	0.6972032465240979	0.7845839271704111	0.16051457375518524	0.8838086005667172	0.7712880016009054	0.3069338235295735	0.3620063121406946	-0.5888684012174972	0.3192584764360985	0.2622808065275781	-0.8036917597707599	0.3048138776743135	0.22003864574562992	-0.6702986348344389	0.43908283838836304	0.3798044751642425	-0.48597341841145636	0.4789346280149658	0.4455179594468454	-0.21621310286359274	0.4123676166184995	0.39828971072062946	0.023625929910616777	0.32546699179203303	0.3891244072563259	0.11080598497893848	0.3506576239191756	0.3616365609555876	0.14817833112644208	0.3714115659401355	0.40132317241651866	0.15216100856941314	0.1553400467883461	0.39724964570201315	-0.4999197136273343	0.1195072320089069	0.4410677721455568	-0.2262177605920104	0.12145817018538253	0.4278588100927805	-0.007834744752347298	0.1520549048002702	0.30831754360131947	0.0816740512382382	0.1222325032760825	0.2956492865210056	0.12180310484679206	0.08528831405065146	0.38433581266681804	0.11054857693307955
338	5.728813559322034	0.3940496486233907	0.5580548797460898	-0.08310933339305017	0.3978457698047751	0.689898210204397	0.320318940937411	0.3930386117865272	0.8547869685347329	0.7214077250493248	0.35114575518662755	0.6774835265000122	0.8038382857208983	0.4104152378255843	0.6851272925395532	0.7906689531269951	0.3594215440128958	0.9615716708512206	0.7905731655399295	0.19385655923881406	0.5523169910996255	-0.09510974702216768	0.19007653761886015	0.706052265786339	0.33163870773890713	0.16018347278617057	0.8328419091808913	0.7183327181037162	0.18055294972698055	0.638920612407463	0.7804520279643951	0.12977370012074768	0.6975438649454941	0.7847427022826733	0.1596909028264336	0.8803676406065034	0.7660189529822363	0.3069934191288048	0.3619543017225503	-0.5889494431498538	0.31926359541870564	0.26232859084356164	-0.8037610335128152	0.30492621986483837	0.2193441657249741	-0.673703392371079	0.43908595440500325	0.38002387993684794	-0.48594711750753117	0.47518782951313376	0.45947792566183354	-0.22027095034202263	0.4173797674043186	0.40162668589383205	0.02722615327275405	0.3292451739987404	0.40524269699350085	0.11561552173633506	0.35425281382940527	0.3762325662078631	0.15260642201796928	0.3790314943896881	0.4154342726771289	0.15337873041573835	0.15292003335170157	0.38444459007698917	-0.49815771560963157	0.12448520621003172	0.4422902602187154	-0.22987634100351514	0.11003944838967408	0.4285757787052383	-4.703483045017253e-05	0.14265229905348797	0.29408982897745733	0.09227157729186339	0.1125878893807822	0.3194929075559063	0.12449266025332437	0.07957975674770744	0.3978261892250212	0.11580252210311563
339	5.745762711864407	0.39403016326699747	0.5580434470873465	-0.08329689483101575	0.39721218091109456	0.69209160287784	0.32497722823352976	0.39331336709345965	0.8541179627608426	0.7253827022943018	0.3511407957592425	0.6778201826437112	0.8039980480698823	0.4104338278170809	0.6861347813892299	0.7906889732790534	0.36370154442261005	0.9642699429161948	0.7912453355846122	0.19433216669614184	0.5550672786047364	-0.09111499104493725	0.18533752972714523	0.7045743936416515	0.3276044076968677	0.1601689631421776	0.8329168177073532	0.7184740033813866	0.18405828341116295	0.6570159551406777	0.7938975692486014	0.1296742744134899	0.6975112270174679	0.7848121348293963	0.1608348065138526	0.8834740823556603	0.7752185725250869	0.3070403601625886	0.3619929372123182	-0.5890037859897952	0.31927520995594283	0.26238487892072737	-0.8038280874654539	0.30497917963974097	0.21946406062694584	-0.6738361311435084	0.43902937136873826	0.3799932884449193	-0.4860830625773899	0.47909495013046016	0.44566509287857836	-0.2198713882266516	0.41762961424269235	0.4019577280203184	0.027071341788356452	0.33598858897097145	0.4100934777361358	0.12356784190860969	0.3583945344480644	0.3635534480880391	0.15118481819541604	0.3795905961852259	0.4150280379650306	0.15372184313525214	0.15915154641488763	0.39921245012284445	-0.5002248444317665	0.12434112304064349	0.4421365519670514	-0.22976789786103952	0.10535402977075733	0.4281404736125749	0.0037312628185351662	0.13465841902424483	0.3202939945676791	0.10511883608930482	0.10190236524213735	0.3338802449911936	0.1288611739309266	0.07513525424681133	0.39987596015299576	0.1271885152617115
340	5.762711864406779	0.39387035769274137	0.5576017545797975	-0.08736270630320926	0.39358045669067115	0.692203500150575	0.32919386742579976	0.3942023553336565	0.8571331178260534	0.7308183884759342	0.35189853929832365	0.6805772465023812	0.8086424138972176	0.4148817542388688	0.6673680381510392	0.7899512177455663	0.3637274277516273	0.9635187599880481	0.7910123858998888	0.19439723233425527	0.5548342141181031	-0.09110134605136765	0.18512068323232103	0.7044510357682755	0.3275971592987337	0.16010670824067513	0.8328980587158317	0.7184781679657135	0.18152601570753343	0.641405440133477	0.7897783298836021	0.12945434492188726	0.6976720575929004	0.7850239506553046	0.16049848725264962	0.8837975244949652	0.7712512541213733	0.30700812359065094	0.3619052473247046	-0.5890749087147659	0.31927398321184997	0.2623638326208311	-0.803874885433687	0.3050865341046351	0.21951683623547666	-0.6739502087138726	0.43900587318329237	0.3799100321833446	-0.4860923949561414	0.47903914848905466	0.4456083024313099	-0.219924362964067	0.41755085000934966	0.39982317794637784	0.023468843996401634	0.340641730073165	0.3926097913331273	0.11911400650209338	0.36288082002626404	0.3642469745862124	0.1516688073201576	0.3878194613272791	0.4300948714988673	0.1591388779310749	0.15916826283384208	0.39915904800443364	-0.5002039265782922	0.12446209700316019	0.4420371539794613	-0.22970445066097228	0.10447886876055056	0.42954093624480055	0.007545771847885353	0.12905183308776502	0.33613113358336677	0.11385879997318286	0.09316943395997523	0.3723632793253999	0.13231664904130205	0.07450002856010778	0.3984097156878505	0.12286580228623305
341	5.779661016949152	0.3982323017894851	0.5423989987253216	-0.08729778073176682	0.39726903340189573	0.6946578023422395	0.3261436691333264	0.39397256708494494	0.857913009123245	0.7268236293313416	0.3490478643827838	0.6658151622418772	0.8089692785903361	0.4069993160107986	0.6700686599914641	0.7911414692888467	0.3635476030081951	0.9636877088686135	0.7910547859114111	0.19497870224496147	0.5570543867890495	-0.08675688473386813	0.18494189830270782	0.7052143011362895	0.327560488569802	0.1601369016689678	0.8329416030665784	0.7185640328448293	0.1814867501320215	0.6414474226626445	0.7898988740392011	0.12940776236020204	0.69783928049165	0.7851613211606288	0.16057477112559707	0.883803176160951	0.7712800835663813	0.30701239378761785	0.36190011023868945	-0.5891249090018433	0.31933124024731646	0.26192664023277884	-0.8072474961201721	0.3051866573436458	0.21942059820548163	-0.6741406324415576	0.43904799380116544	0.37999930061442533	-0.4860079067818576	0.4754155411011277	0.45932242157811987	-0.22053896194211303	0.417949594433865	0.4005553230796187	0.023521380252973564	0.3410049481425044	0.39302799549445583	0.11954323686501006	0.36270551029878106	0.3646966368740786	0.15255182469179984	0.3918655971740845	0.4314391193641202	0.15999996194560911	0.15672287116968936	0.38613319064368457	-0.49846854520944095	0.12567281156923163	0.4268589512439548	-0.2252231108135936	0.09854680846693419	0.4432979383435127	0.011764936055902354	0.1180229725651093	0.3597108462500288	0.11513808872273017	0.09247700276091655	0.37338552788757123	0.13232590256855067	0.06547512620097402	0.4091794733273483	0.12349058294067285
